M48
METRIC,TZ
T01C0.5080
T02C0.7620
T03C1.0160
T04C3.0000
T05C1.8000
%
T01
X-65580Y+56000
X-65580Y+48300
X-66020Y+70200
X-66020Y+60300
X-92700Y+46452
X-82900Y+46500
X-96200Y+41200
X-96200Y+48400
T02
X-86300Y+21900
X-88840Y+21900
X-95600Y+21900
X-93060Y+21900
X-102300Y+46886
X-102300Y+44143
X-102300Y+41400
X-102300Y+38657
X-102300Y+35914
X-104840Y+45515
X-104840Y+42772
X-104840Y+40028
X-104840Y+37285
X-46853Y+74859
X-46853Y+69779
T03
X-92700Y+40100
X-82540Y+40100
X-62300Y+33220
X-62300Y+23060
X-93440Y+28100
X-90900Y+28100
X-88360Y+28100
X-72640Y+23680
X-79140Y+23680
X-72640Y+19180
X-79140Y+19180
X-52703Y+24709
X-52703Y+27249
X-52703Y+29789
X-52703Y+32329
X-52703Y+34869
X-66940Y+23200
X-66940Y+33360
X-44663Y+63789
X-47203Y+63789
X-44703Y+81289
X-47243Y+81289
X-70100Y+47800
X-70100Y+50340
X-70100Y+52880
X-70100Y+55420
X-77720Y+55420
X-77720Y+52880
X-77720Y+50340
X-77720Y+47800
X-40503Y+40739
X-40503Y+43279
X-40503Y+45819
X-40503Y+48359
X-40503Y+50899
X-40503Y+53439
X-40503Y+55979
X-40503Y+58519
X-40503Y+61059
X-40503Y+63599
X-40503Y+66139
X-40503Y+68679
X-40503Y+71219
X-40503Y+73759
X-40503Y+76299
X-40503Y+78839
X-40503Y+81379
X-40503Y+83919
X-40503Y+86459
X-40503Y+88999
X-55743Y+88999
X-55743Y+86459
X-55743Y+83919
X-55743Y+81379
X-55743Y+78839
X-55743Y+76299
X-55743Y+73759
X-55743Y+71219
X-55743Y+68679
X-55743Y+66139
X-55743Y+63599
X-55743Y+61059
X-55743Y+58519
X-55743Y+55979
X-55743Y+53439
X-55743Y+50899
X-55743Y+48359
X-55743Y+45819
X-55743Y+43279
X-55743Y+40739
X-45203Y+56789
X-45203Y+59329
X-49703Y+56789
X-49703Y+59329
X-81600Y+28200
X-79060Y+28200
X-92800Y+35300
X-82640Y+35300
X-34503Y+40789
X-34503Y+43289
X-34503Y+45889
X-34503Y+48389
X-34503Y+50889
X-34503Y+53489
X-34503Y+55989
X-34503Y+58489
X-34503Y+61089
X-34503Y+63589
X-34503Y+66189
X-34503Y+68689
X-34503Y+71289
X-34503Y+73789
X-34503Y+76289
X-34503Y+78889
X-34503Y+81389
X-34503Y+83989
X-34503Y+86489
X-34503Y+88989
X-74300Y+66900
X-74300Y+69440
X-74300Y+71980
X-74300Y+74520
X-74300Y+77060
X-74300Y+79600
X-62000Y+40700
X-62000Y+43200
X-62000Y+45800
X-62000Y+48300
X-62000Y+50800
X-62000Y+53400
X-62000Y+55900
X-62000Y+58400
X-62000Y+61000
X-62000Y+63500
X-62000Y+66100
X-62000Y+68600
X-62000Y+71200
X-62000Y+73700
X-62000Y+76200
X-62000Y+78800
X-62000Y+81300
X-62000Y+83900
X-62000Y+86400
X-62000Y+88900
T04
X-103570Y+28903
X-103570Y+53897
X-103700Y+19400
X-37200Y+19300
X-36900Y+95200
X-103500Y+95200
T05
X-107800Y+71400
X-107800Y+82400
M30
